<svg xmlns="http://www.w3.org/2000/svg" viewBox="0 0 1366 390.05"><title>Logo</title><path d="M533.53,152.84c-17.1,0-25.56,13.46-29.44,22.14-2.17,4.85-2.77,8.68-4.53,8.68-2.48,0-.71-3.33-2.73-10.72-2.67-9.72-10.72-20.1-27.8-20.1-18,0-25.66,15.18-29.31,23.52-2.49,5.71-2.5,7.3-4.42,7.3-2.78,0-.47-4.53.78-9.85a44.48,44.48,0,0,0,.59-18.5H408.19V262.4h38.87V209.12c0-10.51,4.4-23.85,11.93-23.85,8.71,0,10.45,6.69,10.45,19.07v58.09h39V209.12c0-9.36,3.82-23.85,12-23.85,8.83,0,10.4,9.4,10.4,19.07V262.4h38.33v-63C569.19,171.48,559.33,152.84,533.53,152.84Z"/><path d="M1193.38,152.84c-17.1,0-25.57,13.46-29.45,22.14-2.17,4.85-2.77,8.68-4.53,8.68-2.48,0-.82-4.23-2.73-10.72-2.85-9.66-9.94-20.1-27.8-20.1s-25.66,15.18-29.31,23.52c-2.49,5.71-2.5,7.3-4.42,7.3-2.77,0-.47-4.53.78-9.85a44.48,44.48,0,0,0,.59-18.5H1068V262.4h38.87V209.12c0-10.51,4.4-23.85,11.94-23.85,8.7,0,10.44,6.69,10.44,19.07v58.09h39V209.12c0-9.36,3.81-23.85,12-23.85,8.82,0,10.39,9.4,10.39,19.07V262.4H1229v-63C1229,171.48,1219.18,152.84,1193.38,152.84Z"/><path d="M635.56,152.87c-29.78,0-51.14,10.95-51.14,10.95V196s23.59-13.57,42.74-13.57c15.28,0,17.15,8.24,16.46,15.08,0,0-4.41-1.17-17.86-1.17-31.68,0-47.68,14.4-47.68,37.5,0,21.9,18,31,33.13,31C633.3,264.89,643,250,646,243c2.07-4.89,2.44-8.18,4.31-8.18,2.12,0,1.4,2.36,1.3,7.22-.18,8.52.22,15,1.57,20.39h29.3V209.72C682.49,176.82,670.85,152.87,635.56,152.87Zm-9.46,84.5c-9.3,2.15-14.12-.71-14.12-6.87,0-8.44,8.73-11.82,21.2-11.82,5.49,0,10.66.47,10.66.47C643.84,222.76,636,235.09,626.1,237.37Z"/><rect x="746.53" y="122.89" width="38.88" height="139.54"/><path d="M828.19,208.88c0-9.63,8.95-18.39,25.37-18.39,17.9,0,32.29,8.62,35.52,10.57V163.82s-11.37-10.95-39.32-10.95c-29.46,0-54,17.24-54,54.34s22.27,57.68,53.92,57.68c24.72,0,39.46-13.58,39.46-13.58V215.93c-4.66,2.61-17.65,11.63-35.4,11.63C835,227.56,828.19,218.91,828.19,208.88Z"/><path d="M967.83,152.87c-22.51,0-31.07,21.32-32.8,25s-2.58,5.83-4,5.78c-2.46-.08-.75-4.54.21-7.43a126,126,0,0,0,5.65-37.41c0-12-1.62-16-1.62-16H901.72V262.43H940.6V209.14c0-8.68,3.46-23.84,13.25-23.84,8.11,0,10.65,6,10.65,18.11v59h38.88V205.74C1003.38,178.25,998.82,152.87,967.83,152.87Z"/><path d="M1016,155.46v107h38.87v-107s-6.53,3.82-19.4,3.82S1016,155.46,1016,155.46Z"/><ellipse cx="1035.34" cy="137.34" rx="23.8" ry="15.53"/><path d="M695.07,155.46v107H734v-107s-6.54,3.82-19.4,3.82S695.07,155.46,695.07,155.46Z"/><ellipse cx="714.39" cy="137.34" rx="23.8" ry="15.53"/><path d="M1306.26,152.84c-20,0-29.14,15-33.12,23.52-2.63,5.65-2.5,7.3-4.42,7.3-2.78,0-.47-4.53.78-9.85a44.48,44.48,0,0,0,.59-18.5h-28.48V292h38.87V248.65c4.6,7.8,13.13,16.14,26.26,16.14,28.11,0,42.26-23.78,42.26-55.92C1349,172.45,1332.06,152.84,1306.26,152.84Zm-10.67,86.57c-8.91,0-15.47-11.3-15.47-27.06,0-15.3,6.74-27,15.17-27,10.81,0,15.43,9.92,15.43,27C1310.72,230.18,1306.46,239.41,1295.59,239.41Z"/><path d="M270.85,185.19a29.22,29.22,0,0,1,7.42,0c1.33-3.05,1.56-8.32.36-14.05-1.78-8.53-4.19-13.69-9.17-12.88s-5.17,7-3.38,15.5A28.76,28.76,0,0,0,270.85,185.19Z"/><path d="M228.09,191.94c3.56,1.56,5.75,2.6,6.61,1.69.55-.56.39-1.64-.47-3a20.92,20.92,0,0,0-9.21-7.42,25.12,25.12,0,0,0-24.43,2.94c-2.39,1.74-4.65,4.16-4.33,5.63.11.48.47.83,1.3.95,2,.23,8.84-3.25,16.75-3.73A29.12,29.12,0,0,1,228.09,191.94Z"/><path d="M220.92,196c-4.64.73-7.2,2.26-8.85,3.68-1.4,1.23-2.27,2.58-2.26,3.54a1.07,1.07,0,0,0,.36.84,1.09,1.09,0,0,0,.76.29,14.2,14.2,0,0,0,3.4-.94,29.59,29.59,0,0,1,14.94-1.55c2.33.26,3.44.41,3.95-.39a1.34,1.34,0,0,0-.13-1.49C232,198.25,227.31,195.27,220.92,196Z"/><path d="M256.41,211c3.15,1.55,6.62.94,7.75-1.35s-.51-5.42-3.66-7-6.62-.94-7.75,1.36S253.26,209.49,256.41,211Z"/><path d="M276.67,193.34c-2.56,0-4.68,2.77-4.74,6.28s2,6.39,4.52,6.43,4.69-2.76,4.75-6.27S279.23,193.38,276.67,193.34Z"/><path d="M104.7,256.65c-.64-.8-1.68-.56-2.7-.32a9.58,9.58,0,0,1-2.39.33,5.18,5.18,0,0,1-4.37-2.21c-1.16-1.79-1.1-4.46.19-7.52.17-.41.38-.87.6-1.37,2-4.61,5.49-12.32,1.63-19.67-2.9-5.53-7.64-9-13.33-9.69a17.12,17.12,0,0,0-14.69,5.29c-5.66,6.25-6.55,14.75-5.45,17.76.4,1.1,1,1.4,1.48,1.46,1,.14,2.39-.57,3.28-3,.07-.17.15-.44.26-.78a23.91,23.91,0,0,1,2.35-5.53A10,10,0,0,1,78,227a10.33,10.33,0,0,1,7.84,1.46,10.06,10.06,0,0,1,3.8,12.1c-.88,2.4-2.3,7-2,10.76.64,7.63,5.33,10.69,9.55,11,4.1.15,7-2.15,7.69-3.83A1.66,1.66,0,0,0,104.7,256.65Z"/><path d="M341.27,242.69c-.15-.55-1.17-4.26-2.57-8.74a69.21,69.21,0,0,0-2.84-7.63c5.6-8.39,5.7-15.89,5-20.13-.8-5.27-3-9.76-7.41-14.39s-13.45-9.39-26.15-13c-1.45-.41-6.24-1.72-6.66-1.85,0-.27-.35-15.71-.64-22.33-.21-4.79-.62-12.27-2.94-19.63-2.77-10-7.59-18.69-13.6-24.28,16.59-17.2,26.95-36.14,26.93-52.4-.05-31.26-38.44-40.72-85.75-21.13,0,0-10,4.22-10,4.26s-18.12-17.79-18.39-18c-54-47-222.6,140.41-168.68,185.94l11.78,10A58,58,0,0,0,36,246.13c1.26,12.53,7.72,24.55,18.2,33.83,9.94,8.81,23,14.39,35.71,14.37,21,48.36,68.92,78,125.14,79.7,60.3,1.79,110.92-26.51,132.13-77.34,1.39-3.56,7.28-19.64,7.28-33.83S346.41,242.69,341.27,242.69ZM94.55,280.75a28.83,28.83,0,0,1-5.58.4c-18.22-.49-37.89-16.89-39.84-36.34-2.17-21.49,8.82-38,28.26-41.95a33,33,0,0,1,8.16-.58c10.9.59,27,9,30.62,32.69C119.42,256,114.26,277.39,94.55,280.75ZM74.21,190a46.33,46.33,0,0,0-29.29,18.69c-3.9-3.25-11.17-9.55-12.45-12-10.42-19.78,11.37-58.23,26.58-79.95,37.61-53.66,96.51-94.28,123.77-86.91,4.44,1.25,19.12,18.27,19.12,18.27a384.12,384.12,0,0,0-52.53,36.21C115.35,110.53,89.62,148.64,74.21,190Zm191.18,82.72a1.08,1.08,0,0,0,.62-1.07,1,1,0,0,0-1.1-.9s-28.53,4.22-55.49-5.64c2.94-9.55,10.75-6.1,22.55-5.15a164.84,164.84,0,0,0,54.41-5.88c12.21-3.5,28.24-10.41,40.69-20.24a82.25,82.25,0,0,1,5.69,19.38,9.45,9.45,0,0,1,6,1.09c2.57,1.58,4.46,4.87,3.17,13.36-2.62,15.86-9.36,28.74-20.7,40.59a85.18,85.18,0,0,1-24.85,18.57,104.27,104.27,0,0,1-16.24,6.86c-42.72,13.95-86.45-1.39-100.55-34.33a52.51,52.51,0,0,1-2.83-7.78c-6-21.71-.91-47.76,15-64.16h0a5.84,5.84,0,0,0,2-3.82,6.76,6.76,0,0,0-1.53-3.63c-5.58-8.09-24.9-21.88-21-48.56,2.78-19.16,19.54-32.66,35.17-31.86l4,.23c6.77.4,12.68,1.26,18.26,1.5,9.33.4,17.72-1,27.66-9.24,3.35-2.79,6-5.21,10.59-6a12.89,12.89,0,0,1,4-.4,13.35,13.35,0,0,1,6.81,2.18c8,5.3,9.1,18.14,9.51,27.54.24,5.36.89,18.33,1.11,22.05.51,8.52,2.74,9.72,7.27,11.21,2.55.84,4.91,1.46,8.4,2.44,10.54,3,16.8,6,20.74,9.83a13,13,0,0,1,3.78,7.42c1.24,9.07-7,20.27-29,30.46-24,11.13-53.08,14-73.18,11.71l-7-.8c-16.08-2.16-25.25,18.62-15.6,32.85,6.22,9.18,23.16,15.15,40.11,15.15,38.86,0,68.73-16.59,79.84-30.92.33-.43.36-.48.89-1.27s.09-1.28-.59-.81c-9.07,6.21-49.4,30.87-92.52,23.45a57.34,57.34,0,0,1-10-2.72c-3.8-1.48-11.76-5.14-12.72-13.3C243.47,282.89,265.39,272.72,265.39,272.72Zm-55.14-6.51h0ZM143.67,116.53C157,101.08,173.5,87.64,188.24,80.1a.58.58,0,0,1,.77.8A43.26,43.26,0,0,0,184.87,91a.6.6,0,0,0,.93.63c9.17-6.25,25.13-12.95,39.12-13.81a.62.62,0,0,1,.42,1.1,33.08,33.08,0,0,0-6.16,6.18.59.59,0,0,0,.47,1c9.82.07,23.68,3.51,32.71,8.57.61.35.17,1.53-.51,1.37-13.66-3.13-36-5.5-59.25.16C171.86,101.21,156,109,144.48,117.42A.61.61,0,0,1,143.67,116.53Z"/></svg>